<svg
  aria-hidden="true"
  style="position: absolute; width: 0; height: 0; overflow: hidden"
  version="1.1"
  xmlns="http://www.w3.org/2000/svg"
  xmlns:xlink="http://www.w3.org/1999/xlink"
>
  <defs>
    <symbol id="icon-telegram" viewBox="0 0 32 32">
      <path
        fill="#2ca5e0"
        style="fill: var(--color1, #2ca5e0)"
        d="M31.88 5.053l-4.813 22.733c-0.333 1.613-1.307 2-2.667 1.253l-7.333-5.427-3.547 3.427c-0.4 0.4-0.733 0.747-1.467 0.747-0.96 0-0.8-0.36-1.12-1.267l-2.533-8.253-7.267-2.267c-1.573-0.467-1.587-1.547 0.347-2.333l28.347-10.933c1.293-0.573 2.533 0.32 2.053 2.32z"
      ></path>
    </symbol>
    <symbol id="icon-vk" viewBox="0 0 32 32">
      <path
        fill="#4680c2"
        style="fill: var(--color2, #4680c2)"
        d="M20.912 0h-9.824c-8.965 0-11.088 2.123-11.088 11.088v9.824c0 8.965 2.123 11.088 11.088 11.088h9.824c8.965 0 11.088-2.123 11.088-11.088v-9.824c0-8.965-2.145-11.088-11.088-11.088zM25.835 22.831h-2.325c-0.88 0-1.152-0.7-2.733-2.303-1.377-1.333-1.987-1.513-2.325-1.513-0.475 0-0.611 0.136-0.611 0.791v2.1c0 0.565-0.18 0.904-1.671 0.904-2.461 0-5.195-1.491-7.113-4.269-2.891-4.064-3.683-7.113-3.683-7.745 0-0.339 0.136-0.655 0.791-0.655h2.325c0.587 0 0.813 0.271 1.040 0.903 1.151 3.32 3.071 6.233 3.861 6.233 0.293 0 0.429-0.136 0.429-0.88v-3.435c-0.091-1.581-0.927-1.716-0.927-2.28 0-0.272 0.227-0.543 0.587-0.543h3.659c0.497 0 0.677 0.271 0.677 0.857v4.631c0 0.496 0.227 0.677 0.361 0.677 0.293 0 0.543-0.181 1.084-0.723 1.672-1.875 2.868-4.765 2.868-4.765 0.159-0.339 0.429-0.655 1.017-0.655h2.325c0.7 0 0.859 0.36 0.7 0.857-0.293 1.356-3.139 5.375-3.139 5.375-0.248 0.407-0.339 0.587 0 1.040 0.248 0.339 1.061 1.039 1.604 1.671 0.993 1.129 1.76 2.077 1.964 2.733 0.227 0.653-0.113 0.992-0.767 0.993z"
      ></path>
    </symbol>
    <symbol id="icon-whatsapp" viewBox="0 0 32 32">
      <path
        fill="#25d366"
        style="fill: var(--color3, #25d366)"
        d="M23.331 19.176c-0.401-0.2-2.356-1.156-2.72-1.288-0.364-0.135-0.631-0.2-0.897 0.2-0.263 0.393-1.028 1.285-1.259 1.549-0.233 0.26-0.465 0.28-0.861 0.1-0.4-0.2-1.684-0.62-3.204-1.98-1.184-1.060-1.979-2.36-2.213-2.76-0.232-0.4-0.025-0.62 0.173-0.82 0.181-0.18 0.401-0.46 0.601-0.697 0.195-0.241 0.259-0.401 0.396-0.661 0.133-0.28 0.065-0.5-0.033-0.699-0.1-0.2-0.896-2.16-1.229-2.941-0.32-0.779-0.649-0.68-0.896-0.68-0.229-0.020-0.495-0.020-0.761-0.020s-0.697 0.099-1.063 0.479c-0.364 0.4-1.393 1.36-1.393 3.3s1.427 3.82 1.625 4.1c0.199 0.26 2.807 4.26 6.8 5.98 0.952 0.4 1.693 0.64 2.272 0.839 0.952 0.303 1.82 0.26 2.507 0.161 0.765-0.121 2.356-0.961 2.688-1.901 0.34-0.94 0.34-1.72 0.24-1.9-0.099-0.18-0.36-0.28-0.76-0.46zM16.081 29h-0.021c-2.36 0-4.699-0.64-6.74-1.84l-0.48-0.285-5 1.3 1.34-4.86-0.319-0.5c-1.32-2.101-2.021-4.521-2.021-7.013 0-7.26 5.94-13.18 13.256-13.18 3.539 0 6.86 1.38 9.361 3.88 2.5 2.479 3.879 5.8 3.879 9.32-0.005 7.259-5.947 13.18-13.247 13.18zM27.36 4.599c-3.040-2.939-7.040-4.599-11.3-4.599-8.776 0-15.921 7.112-15.925 15.857 0 2.795 0.732 5.52 2.127 7.927l-2.261 8.216 8.447-2.203c2.328 1.257 4.947 1.925 7.613 1.929h0.008c8.78 0 15.928-7.115 15.932-15.861 0-4.235-1.653-8.22-4.66-11.215z"
      ></path>
    </symbol>
    <symbol id="icon-phone" viewBox="0 0 32 32">
      <path
        d="M22 20c-2 2-2 4-4 4s-4-2-6-4-4-4-4-6 2-2 4-4-4-8-6-8-6 6-6 6c0 4 4.109 12.109 8 16s12 8 16 8c0 0 6-4 6-6s-6-8-8-6z"
      ></path>
    </symbol>
    <symbol id="icon-tennis-ball" viewBox="0 0 32 32">
      <path
        d="M24.294 8.044v0c-2.045 2.226-3.294 5.195-3.294 8.456s1.249 6.23 3.294 8.456c-2.049 1.89-4.787 3.044-7.794 3.044s-5.745-1.154-7.794-3.044c2.045-2.226 3.294-5.195 3.294-8.456s-1.249-6.23-3.294-8.456v0c2.049-1.89 4.787-3.044 7.794-3.044s5.745 1.154 7.794 3.044zM25 8.754c1.864 2.044 3 4.762 3 7.746s-1.136 5.702-3 7.746c-1.864-2.044-3-4.762-3-7.746s1.136-5.702 3-7.746v0zM8 8.754v0 0c1.864 2.044 3 4.762 3 7.746s-1.136 5.702-3 7.746c-1.864-2.044-3-4.762-3-7.746s1.136-5.702 3-7.746zM16.5 29c6.904 0 12.5-5.596 12.5-12.5s-5.596-12.5-12.5-12.5c-6.904 0-12.5 5.596-12.5 12.5s5.596 12.5 12.5 12.5v0z"
      ></path>
    </symbol>

    <symbol
      id="children"
      viewBox="0 0 289.207 289.207"
      style="enable-background: new 0 0 289.207 289.207"
    >
      <g>
        <path
          d="M284.292,43.708c-5.091-3.419-11.99-2.064-15.411,3.028l-30.569,45.519c-3.355-1.676-7.137-2.623-11.143-2.623h-16.658
		c-3.985,0-7.75,0.938-11.094,2.598l-30.551-45.493c-3.421-5.094-10.319-6.447-15.411-3.028c-5.092,3.42-6.447,10.319-3.028,15.411
		l35.277,52.53c-0.26,2.195-0.148,148.04-0.148,148.04c0,7.667,6.215,13.882,13.882,13.882c7.667,0,13.882-6.215,13.882-13.882
		v-62.471h11.106v62.471c0,7.667,6.215,13.882,13.882,13.882c7.667,0,13.882-6.215,13.882-13.882
		c0-53.649,0.068-145.573-0.204-147.956l35.334-52.614C290.739,54.027,289.384,47.128,284.292,43.708z"
        />
        <path
          d="M218.873,81.873c14.696,0,26.615-11.908,26.615-26.614c0-9.339-4.824-17.553-12.113-22.301
		c1.443-0.963,3.088-1.855,4.998-2.631c0.909-0.369,1.521-1.231,1.567-2.211c0.047-0.98-0.481-1.897-1.352-2.35
		c-4.209-2.186-9.338-2.231-14.178-1.303c0.821-1.538,1.855-3.109,3.183-4.702c0.628-0.754,0.761-1.804,0.34-2.689
		c-0.421-0.886-1.319-1.446-2.3-1.436c-9.727,0.111-18.649,9.972-22.203,15.869c-0.633,1.05-1.142,2.147-1.524,3.26
		c-5.893,4.882-9.648,12.251-9.648,20.493C192.259,69.965,204.178,81.873,218.873,81.873z"
        />
        <path
          d="M135.752,43.708c-5.091-3.419-11.99-2.064-15.411,3.028l-7.24,10.782c-2.85-1.338-6.023-1.51-9.055,0.123
		c-0.186,0.1-0.357,0.215-0.534,0.323l0.043-0.122c0.763-2.17-0.378-4.547-2.548-5.31c-1.479-0.521-3.04-0.143-4.134,0.827
		c-0.976-13.8-12.483-24.706-26.539-24.706c-14.057,0-25.564,10.906-26.54,24.706c-1.096-0.97-2.657-1.349-4.134-0.827
		c-2.17,0.763-3.311,3.14-2.548,5.31l0.043,0.122c-0.177-0.109-0.349-0.224-0.533-0.323c-3.031-1.633-6.206-1.461-9.056-0.124
		l-7.24-10.781c-3.42-5.094-10.322-6.448-15.411-3.028c-5.092,3.42-6.447,10.319-3.028,15.411l12.711,18.927
		c-0.685,3.51-0.701,7.087,0.48,10.327c0.336,0.922,1.177,1.565,2.154,1.646c0.979,0.081,1.913-0.414,2.396-1.267
		c0.335-0.591,0.681-1.144,1.032-1.678l16.504,24.575c-0.25,2.119-0.182,0.143-0.182,35.685L21.864,208.97
		c-0.705,2.875-0.051,5.915,1.777,8.244c1.826,2.33,4.623,3.69,7.584,3.69h5.791v38.784c0,7.667,6.215,13.882,13.882,13.882
		s13.882-6.215,13.882-13.882v-38.784h11.106v38.784c0,7.667,6.215,13.882,13.882,13.882s13.882-6.215,13.882-13.882v-38.784h5.726
		c2.961,0,5.758-1.36,7.584-3.69c1.828-2.329,2.482-5.369,1.777-8.244l-15.119-61.642h-0.001c0-35.551,0.064-33.537-0.171-35.595
		l16.561-24.661c0.352,0.534,0.697,1.087,1.032,1.678c0.483,0.854,1.418,1.349,2.396,1.267c0.979-0.081,1.819-0.724,2.155-1.646
		c1.181-3.24,1.164-6.817,0.479-10.327l12.711-18.927C142.199,54.027,140.844,47.128,135.752,43.708z M89.773,92.255
		c-3.355-1.676-7.138-2.623-11.144-2.623H61.971c-3.985,0-7.75,0.938-11.093,2.597l-12.056-17.95
		c0.951-0.59,1.696-1.252,2.154-2.103c0.354-0.658,0.633-1.336,0.839-2.025c0.783,0.844,1.885,1.34,3.044,1.34
		c0.458,0,0.925-0.076,1.381-0.237c0.769-0.271,1.401-0.751,1.873-1.347c4.763,7.21,12.936,11.967,22.221,11.967
		c9.285,0,17.458-4.757,22.22-11.967c0.472,0.596,1.104,1.076,1.874,1.347c0.457,0.161,0.923,0.237,1.381,0.237
		c1.159,0,2.261-0.497,3.044-1.34c0.206,0.688,0.484,1.367,0.839,2.025c0.458,0.85,1.203,1.512,2.154,2.102L89.773,92.255z"
        />
      </g>
    </symbol>

    <symbol
      id="group"
      viewBox="0 0 124.915 124.915"
      style="enable-background: new 0 0 124.915 124.915"
      xml:space="preserve"
    >
      <g>
        <g>
          <path
            d="M63.643,31.73l-1.797,1.641l-2.37-2.232c-0.492-0.083-0.974-0.188-1.445-0.323c-0.979,0.444-2.146,1.049-3.352,1.761
			c0.088-0.519,0.084-1.044-0.019-1.555c0.536-0.312,1.064-0.6,1.581-0.872c-2.766-1.265-5.006-3.469-6.324-6.207
			c-0.729,0.444-1.444,0.897-2.126,1.359c-0.998-0.572-1.959-1.117-2.716-1.545c-1.275,2.762-3.486,4.996-6.229,6.303
			c2.245,1.167,7.706,4.193,9.223,5.264c0.332,0.232,0.69,0.393,1.057,0.52v22.12c0,1.9,0.305,3.709,0.875,5.36
			c-0.016,0.175-0.027,0.353-0.027,0.533v4.967h0.033c-0.002,0.072-0.021,0.14-0.021,0.212l0.002,43.685
			c0,2.979,2.414,5.393,5.392,5.393s5.391-2.413,5.391-5.393L60.77,69.036c0-0.073-0.019-0.14-0.021-0.212h0.81
			c-0.002,0.072-0.021,0.139-0.021,0.211l-0.003,43.686c0,2.979,2.414,5.393,5.391,5.393h0.001c2.977,0,5.391-2.413,5.391-5.391
			l0.003-43.686c0-0.073-0.019-0.141-0.021-0.212h0.062l0.005-5.644c0,0,0.953-1.279,0.953-5.911c0-2.487,0.253-11.765,0.253-11.765
			l0.025-10.144c-0.057-0.028-7.717-4.226-7.717-4.226L63.643,31.73z"
          />
          <path
            d="M35.746,31.466l-2.37,1.817l-1.797-1.642c-3.926,1.79-8.646,4.019-8.71,4.05c-0.686,0.324-1.418,0.488-2.172,0.488
			c-0.835,0-1.641-0.219-2.359-0.596L18.321,35.6c-4.541-3.644-8.328-9.951-9.655-12.667c-1.1-2.266-3.83-3.21-6.096-2.11
			c-2.267,1.101-3.211,3.831-2.11,6.096c0.804,1.657,8.181,16.282,19.31,19.766c0.641,0.201,1.285,0.349,1.929,0.469
			c0.073,2.804,0.207,8.216,0.207,10.031c0,4.631,0.954,5.909,0.954,5.909l0.004,5.646h0.083c-0.002,0.073-0.021,0.143-0.021,0.217
			l0.001,43.687c0,2.978,2.414,5.392,5.392,5.392s5.391-2.415,5.391-5.394l-0.001-43.685c0-0.074-0.019-0.144-0.022-0.217h0.812
			c-0.003,0.073-0.022,0.143-0.022,0.217l-0.003,43.685c-0.001,2.979,2.413,5.393,5.391,5.394c2.978,0,5.392-2.414,5.392-5.392
			V68.957c0-0.074-0.019-0.143-0.021-0.217h0.013v-4.967c0-0.181-0.011-0.358-0.026-0.534c0.57-1.651,0.875-3.461,0.875-5.36V35.343
			c-1.938,0.156-7.776-4.081-8.493-4.407C37.132,31.073,36.236,31.385,35.746,31.466z"
          />
          <path
            d="M20.55,34.73c0.607,0,1.225-0.131,1.809-0.409c0.06-0.028,3.843-1.815,7.454-3.474c-3.227-0.896-5.945-3.004-7.643-5.806
			c-1.876,0.876-3.286,1.542-3.435,1.613c-2.118,1.001-3.023,3.528-2.024,5.646C17.436,33.832,18.961,34.73,20.55,34.73z"
          />
          <circle cx="61.848" cy="18.55" r="11.751" />
          <circle cx="33.508" cy="18.55" r="11.751" />
          <path
            d="M93.65,30.79c3.648,1.675,7.518,3.503,7.579,3.531c0.586,0.277,1.203,0.407,1.812,0.407c1.587,0,3.109-0.896,3.834-2.429
			c1.001-2.117,0.097-4.646-2.021-5.646c-0.159-0.075-1.692-0.8-3.706-1.739C99.494,27.717,96.829,29.847,93.65,30.79z"
          />
          <circle cx="90.188" cy="18.55" r="11.751" />
          <path
            d="M122.35,19.903c-2.262-1.104-4.993-0.162-6.099,2.1c-1.461,2.991-5.896,10.324-11.039,13.674
			c-0.715,0.374-1.515,0.59-2.347,0.59c-0.755,0-1.487-0.165-2.173-0.488c-0.063-0.031-4.782-2.26-8.709-4.049l-1.797,1.641
			l-2.37-2.232c-0.491-0.083-0.975-0.188-1.444-0.323c-0.979,0.444-2.146,1.049-3.353,1.761c0.089-0.519,0.084-1.044-0.019-1.555
			c0.536-0.312,1.062-0.6,1.581-0.872c-2.767-1.265-5.007-3.469-6.324-6.207c-0.729,0.444-1.444,0.897-2.126,1.359
			c-0.998-0.572-1.959-1.117-2.716-1.545c-1.275,2.762-3.487,4.996-6.229,6.303c2.244,1.167,7.706,4.193,9.223,5.264
			c0.332,0.232,0.689,0.393,1.056,0.52v22.12c0,1.9,0.306,3.709,0.876,5.36c-0.016,0.175-0.027,0.353-0.027,0.533v4.967h0.033
			c-0.002,0.072-0.021,0.14-0.021,0.212l0.002,43.685c0,2.979,2.414,5.393,5.392,5.393c2.979,0,5.391-2.413,5.391-5.393
			l-0.004-43.682c0-0.073-0.019-0.141-0.021-0.212h0.811c-0.002,0.071-0.021,0.139-0.021,0.211l-0.003,43.687
			c0,2.978,2.414,5.392,5.391,5.392h0.001c2.978,0,5.392-2.413,5.392-5.39l0.003-43.687c0-0.073-0.02-0.14-0.021-0.212h0.062
			l0.004-5.645c0,0,0.953-1.277,0.953-5.91c0-2.011,0.164-8.457,0.228-10.853c0.543-0.054,1.087-0.138,1.63-0.249l0.042,0.018
			c0.005-0.01,0.012-0.019,0.019-0.029c0.523-0.109,1.049-0.235,1.571-0.399c11.128-3.484,18.505-18.108,19.31-19.766
			C125.556,23.731,124.611,21.006,122.35,19.903z"
          />
        </g>
      </g>
    </symbol>

    <symbol
      id="individual"
      viewBox="0 0 459.431 459.431"
      style="enable-background: new 0 0 459.431 459.431"
      xml:space="preserve"
    >
      <g id="XMLID_343_">
        <g id="XMLID_347_">
          <circle id="XMLID_350_" cx="280.121" cy="115.374" r="36.171" />
          <circle id="XMLID_349_" cx="338.535" cy="22.235" r="22.235" />
        </g>
        <path
          id="XMLID_344_"
          d="M388.039,143.923l11.067-81.739c1.111-8.209-4.643-15.766-12.852-16.877
		c-8.209-1.113-15.766,4.643-16.877,12.852l-10.059,74.289l-49.299,27.387l-58.241,14.989l-59.223,25.756l-35.261-19.983
		l-23.364-53.955l2.314-23.679l-0.054,0.023c5.258-12.231,5.062-28.637-1.748-44.363c-11.087-25.603-35.482-39.687-54.487-31.457
		c-19.005,8.23-25.424,35.657-14.337,61.261c6.81,15.726,18.641,27.093,31.159,31.627l-0.054,0.023l18.853,14.513l17.035,39.338
		c-2.704,1.275-5.058,3.358-6.644,6.157c-4.085,7.207-1.554,16.361,5.654,20.446l16.578,9.395l12.18,28.127
		c2.196,5.069,8.082,7.397,13.15,5.203c5.068-2.195,7.398-8.083,5.203-13.15l-1.65-3.811l7.194,4.077
		c2.285,1.296,4.837,1.95,7.396,1.95c2.031,0,4.068-0.413,5.981-1.245l48.718-21.188l22.102,105.008l-11.015,56.823l-33.005,57.787
		c-5.478,9.591-2.144,21.808,7.448,27.286c9.599,5.481,21.812,2.137,27.286-7.448l34.644-60.656c1.085-1.9,1.85-3.965,2.268-6.113
		l13.576-70.032l8.992-1.893l33.542,49.679l-11.765,76.038c-1.69,10.916,5.791,21.134,16.707,22.823
		c10.893,1.689,21.131-5.776,22.822-16.706l12.964-83.788c0.771-4.982-0.368-10.071-3.189-14.25l-29.91-44.3l-25.19-119.678
		l45.809-25.448C384.595,152.725,387.404,148.611,388.039,143.923z M127.187,127.313l-6.333,2.917l-15.354-11.604
		c0,0,13.688,0,23.438-10L127.187,127.313z"
        />
      </g>
    </symbol>

    <symbol
      id="prize"
      viewBox="0 0 232 232"
      style="enable-background: new 0 0 232 232"
      xml:space="preserve"
    >
      <path
        d="M194.713,26H183v-6.912v-6.797C183,5.669,178.286,0,171.664,0H61.001C54.379,0,49,5.669,49,12.291v6.797V26H37.022
	C31.857,26,22,28.772,22,40.76v19.693c0,21.338,14.733,39.332,34.613,44.59c8.514,17.113,23.482,30.125,41.462,35.463
	c-2.939,1.324-4.98,4.241-4.98,7.64c0,1.813,0.6,3.854,1.59,4.854h-0.327c-4.518,0-8.213,4-8.472,8H74.939
	c-2.935,0-5.694,1.122-7.771,3.21c-2.077,2.087-3.212,4.839-3.197,7.773L64.155,208h-5.072C52.594,208,47,213.261,47,219.75v0.5
	c0,6.489,5.594,11.75,12.083,11.75h113.5c6.489,0,11.417-5.261,11.417-11.75v-0.5c0-6.489-4.927-11.75-11.417-11.75h-4.073
	l0.183-36.03c0.015-2.935-1.12-5.673-3.197-7.761c-2.076-2.087-4.836-3.209-7.771-3.209h-10.945c-0.259-4-3.954-8-8.472-8h-0.327
	c0.99-1,1.578-3.04,1.578-4.854c0-3.4-2.052-6.322-4.991-7.646c17.98-5.337,32.637-18.346,41.151-35.46
	C195.6,99.782,210,81.791,210,60.453V41.449C210,28.917,200.2,26,194.713,26z M40,64.796V44h9v28.233
	c0,6.394,0.735,12.588,2.247,18.485C44.334,84.193,40,74.986,40,64.796z M136.919,90.086L116.333,75.13L95.748,90.086l7.863-24.165
	L83.026,51h25.445l7.863-24.199L124.196,51h25.445l-20.585,14.921L136.919,90.086z M192,64.796c0,10.191-4.334,19.399-11.249,25.924
	C182.264,84.822,183,78.628,183,72.233V44h9V64.796z"
      />
    </symbol>

    <symbol
      id="sport-watch"
      viewBox="0 0 394.233 394.233"
      style="enable-background: new 0 0 394.233 394.233"
      xml:space="preserve"
    >
      <g>
        <path
          d="M276.669,65.452c-3.342-1.369-6.185-3.835-7.616-7.152c-0.936-2.17-1.437-4.528-1.437-6.95V6c0-3.314-2.686-6-6-6h-129
		c-3.314,0-6,2.686-6,6v45.35c0,2.422-0.5,4.78-1.437,6.95c-1.431,3.316-4.273,5.782-7.615,7.151
		c-22.238,9.111-37.948,30.977-37.948,56.456v150.523c0,25.256,15.436,46.962,37.364,56.214c5.406,2.281,9.266,7.363,9.606,13.221
		c0.02,0.337,0.029,46.366,0.029,46.366c0,3.314,2.686,6,6,6h129c3.314,0,6-2.686,6-6c0,0,0.01-46.029,0.029-46.366
		c0.34-5.858,4.2-10.94,9.606-13.221c21.928-9.252,37.364-30.958,37.364-56.214V121.908
		C314.616,96.429,298.906,74.563,276.669,65.452z M255.616,37.22h-117v-7h117V37.22z M255.616,12v6.22h-117V12H255.616z
		 M138.616,51.35v-2.13h117v2.13c0,3.334,0.564,6.598,1.626,9.677c-1.2-0.071-2.407-0.117-3.624-0.117H140.615
		c-1.217,0-2.424,0.046-3.624,0.117C138.053,57.948,138.616,54.684,138.616,51.35z M138.616,357.12h117v7h-117V357.12z
		 M138.616,382.233v-6.113h117v6.113H138.616z M255.616,342.883v2.237h-117v-2.237c0-3.294-0.547-6.521-1.584-9.567
		c1.186,0.069,118.994,0.068,120.187-0.001C256.18,336.364,255.616,339.587,255.616,342.883z M302.616,272.432
		c0,27.018-21.98,48.998-48.998,48.998H140.615c-27.018,0-48.998-21.98-48.998-48.998V121.908c0-27.018,21.98-48.998,48.998-48.998
		h113.004c27.018,0,48.998,21.98,48.998,48.998V272.432z"
        />
        <path
          d="M252.44,79.539H141.794c-23.547,0-42.704,19.157-42.704,42.704v149.854c0,23.547,19.157,42.704,42.704,42.704H252.44
		c23.547,0,42.704-19.157,42.704-42.704V122.243C295.143,98.696,275.987,79.539,252.44,79.539z M283.143,272.097
		c0,16.93-13.773,30.704-30.704,30.704H141.794c-16.93,0-30.704-13.773-30.704-30.704V122.243c0-16.93,13.773-30.704,30.704-30.704
		H252.44c16.93,0,30.704,13.773,30.704,30.704V272.097z"
        />
        <path
          d="M223.009,138.757c-9.502,0-18.524,3.125-25.892,8.889c-7.368-5.765-16.39-8.889-25.892-8.889
		c-11.252,0-21.83,4.382-29.786,12.338S129.1,169.629,129.1,180.881s4.382,21.83,12.335,29.783l51.438,51.439
		c1.171,1.171,2.707,1.757,4.243,1.757s3.071-0.586,4.243-1.757l51.09-51.09l0.346-0.346c7.956-7.956,12.338-18.534,12.338-29.786
		s-4.382-21.83-12.338-29.786S234.26,138.757,223.009,138.757z M244.307,202.185l-47.19,47.19l-47.193-47.193
		c-5.69-5.689-8.823-13.254-8.823-21.301s3.133-15.611,8.823-21.301c5.689-5.69,13.254-8.823,21.301-8.823
		s15.611,3.133,21.301,8.823l0.349,0.349c2.343,2.343,6.142,2.343,8.485,0l0.349-0.349c5.69-5.69,13.254-8.823,21.301-8.823
		c8.047,0,15.612,3.133,21.301,8.823c5.69,5.689,8.823,13.254,8.823,21.301S250,196.493,244.307,202.185z"
        />
      </g>
    </symbol>

    <symbol
      viewBox="0 0 436.64 436.64"
      id="bus"
      style="enable-background: new 0 0 436.64 436.64"
      xml:space="preserve"
    >
      <g>
        <path
          d="M76.906,274.143c-13.806,0-25.039,11.232-25.039,25.039s11.232,25.039,25.039,25.039c13.807,0,25.04-11.232,25.04-25.039
		S90.712,274.143,76.906,274.143z M76.906,309.221c-5.535,0-10.039-4.503-10.039-10.039s4.503-10.039,10.039-10.039
		c5.536,0,10.04,4.503,10.04,10.039S82.441,309.221,76.906,309.221z"
        />
        <path
          d="M337.359,274.143c-13.807,0-25.04,11.232-25.04,25.039s11.233,25.039,25.04,25.039c13.806,0,25.039-11.232,25.039-25.039
		S351.166,274.143,337.359,274.143z M337.359,309.221c-5.536,0-10.04-4.503-10.04-10.039s4.504-10.039,10.04-10.039
		c5.535,0,10.039,4.503,10.039,10.039S342.895,309.221,337.359,309.221z"
        />
        <path
          d="M399.72,87.203H36.93C16.567,87.203,0,103.765,0,124.123v177.84c0,4.142,3.358,7.5,7.5,7.5h20.212
		c4.758,22.796,25.007,39.974,49.195,39.974s44.436-17.178,49.194-39.974h162.064c4.758,22.796,25.006,39.974,49.194,39.974
		s44.436-17.178,49.194-39.974h42.587c4.142,0,7.5-3.358,7.5-7.5v-177.84C436.64,103.765,420.078,87.203,399.72,87.203z
		 M421.64,219.973H381.1c-4.665,0-8.46-3.795-8.46-8.46v-71.43c0-4.665,3.795-8.46,8.46-8.46h40.54V219.973z M15,286.573h13.254
		c-0.663,2.557-1.122,5.194-1.375,7.89H15V286.573z M76.906,334.437c-19.44,0-35.256-15.815-35.256-35.255
		s15.816-35.255,35.256-35.255s35.255,15.815,35.255,35.255S96.346,334.437,76.906,334.437z M337.359,334.437
		c-19.44,0-35.255-15.815-35.255-35.255s15.815-35.255,35.255-35.255s35.255,15.815,35.255,35.255S356.799,334.437,337.359,334.437z
		 M337.359,248.927c-17.519,0-32.964,9.016-41.962,22.646H154.64c-4.142,0-7.5,3.358-7.5,7.5s3.358,7.5,7.5,7.5h134.067
		c-0.663,2.557-1.122,5.194-1.375,7.89H126.933c-2.387-25.506-23.908-45.537-50.027-45.537c-17.519,0-32.965,9.016-41.963,22.646H15
		v-147.45c0-12.087,9.838-21.92,21.93-21.92h362.79c9.453,0,17.528,6.016,20.598,14.42H381.1c-12.936,0-23.46,10.524-23.46,23.46
		v71.43c0,12.936,10.524,23.46,23.46,23.46h40.54v9h-12.5c-4.142,0-7.5,3.358-7.5,7.5s3.358,7.5,7.5,7.5h12.5v12.6h-42.319
		C370.323,257.943,354.878,248.927,337.359,248.927z M387.386,294.463c-0.252-2.696-0.712-5.333-1.375-7.89h35.629v7.89H387.386z"
        />
        <path
          d="M325.18,116.623H55.51c-12.936,0-23.46,10.524-23.46,23.46v71.43c0,12.936,10.524,23.46,23.46,23.46h269.67
		c12.936,0,23.46-10.524,23.46-23.46v-71.43C348.64,127.147,338.116,116.623,325.18,116.623z M235.64,131.623v88.35h-87v-88.35
		H235.64z M47.05,211.513v-71.43c0-4.665,3.795-8.46,8.46-8.46h78.13v88.35H55.51C50.845,219.973,47.05,216.178,47.05,211.513z
		 M333.64,211.513c0,4.665-3.795,8.46-8.46,8.46h-74.54v-88.35h74.54c4.665,0,8.46,3.795,8.46,8.46V211.513z"
        />
        <path
          d="M139.903,272.839c-2.812-1.854-6.617-1.619-9.146,0.627c-2.28,2.024-3.098,5.329-2.051,8.187
		c1.117,3.049,4.156,5.066,7.404,4.907c3.146-0.154,5.915-2.335,6.817-5.347C143.856,278.111,142.614,274.624,139.903,272.839
		C139.493,272.569,140.313,273.109,139.903,272.839z"
        />
      </g>
    </symbol>

    <symbol viewBox="0 0 24 24" id="menu" fill="none">
      <path
        fill-rule="evenodd"
        clip-rule="evenodd"
        d="M2 5h20v2H2V5Zm0 6h20v2H2v-2Zm20 6H2v2h20v-2Z"
        fill="currentColor"
      ></path>
    </symbol>
    <symbol id="close" viewBox="0 0 32 32">
      <path
        d="M31.708 25.708c-0-0-0-0-0-0l-9.708-9.708 9.708-9.708c0-0 0-0 0-0 0.105-0.105 0.18-0.227 0.229-0.357 0.133-0.356 0.057-0.771-0.229-1.057l-4.586-4.586c-0.286-0.286-0.702-0.361-1.057-0.229-0.13 0.048-0.252 0.124-0.357 0.228 0 0-0 0-0 0l-9.708 9.708-9.708-9.708c-0-0-0-0-0-0-0.105-0.104-0.227-0.18-0.357-0.228-0.356-0.133-0.771-0.057-1.057 0.229l-4.586 4.586c-0.286 0.286-0.361 0.702-0.229 1.057 0.049 0.13 0.124 0.252 0.229 0.357 0 0 0 0 0 0l9.708 9.708-9.708 9.708c-0 0-0 0-0 0-0.104 0.105-0.18 0.227-0.229 0.357-0.133 0.355-0.057 0.771 0.229 1.057l4.586 4.586c0.286 0.286 0.702 0.361 1.057 0.229 0.13-0.049 0.252-0.124 0.357-0.229 0-0 0-0 0-0l9.708-9.708 9.708 9.708c0 0 0 0 0 0 0.105 0.105 0.227 0.18 0.357 0.229 0.356 0.133 0.771 0.057 1.057-0.229l4.586-4.586c0.286-0.286 0.362-0.702 0.229-1.057-0.049-0.13-0.124-0.252-0.229-0.357z"
      ></path>
    </symbol>
  </defs>
</svg>
